<svg width="45" height="41" viewBox="0 0 45 41" fill="none" xmlns="http://www.w3.org/2000/svg">
<rect width="45" height="41" fill="#1F2125"/>
<path fill-rule="evenodd" clip-rule="evenodd" d="M22.5 22.2083C24.5652 22.2083 30 20.4574 30 13.6667C30 12.592 30 15.1907 30 12.1831C30 8.49095 27.8397 5.125 22.5 5.125C17.1603 5.125 15 8.56513 15 12.1831C15 14.0332 15 12.5226 15 13.6667C15 20.4574 20.4348 22.2083 22.5 22.2083Z" fill="#FF9100" stroke="#FF9100" stroke-width="2"/>
<path fill-rule="evenodd" clip-rule="evenodd" d="M22.5 27.3333C23.5326 27.3333 26.25 26.2828 26.25 22.2083C26.25 21.5636 26.25 23.1227 26.25 21.3182C26.25 19.1029 25.1699 17.0833 22.5 17.0833C19.8301 17.0833 18.75 19.1474 18.75 21.3182C18.75 22.4282 18.75 21.5219 18.75 22.2083C18.75 26.2828 21.4674 27.3333 22.5 27.3333Z" fill="#FF9100" stroke="#FF9100" stroke-width="2"/>
<path fill-rule="evenodd" clip-rule="evenodd" d="M26.25 25.625H32.1494C32.6882 25.625 33.1887 25.9035 33.4728 26.3614V26.3614C36.0473 30.5112 33.0628 35.875 28.1792 35.875H16.7687C11.8904 35.875 8.89634 30.5315 11.4434 26.3709V26.3709C11.7271 25.9075 12.2314 25.625 12.7747 25.625H18.75" fill="#FF9100" stroke="#FF9100" stroke-width="2"/>
</svg>
