<svg width="24" height="25" viewBox="0 0 24 25" fill="none" xmlns="http://www.w3.org/2000/svg">
<path d="M13.0756 17.6755L15.0311 15.72C15.2711 15.48 15.6267 15.4 15.9378 15.5066C16.9333 15.8355 18.0089 16.0133 19.1111 16.0133C19.6 16.0133 20 16.4133 20 16.9022V20.0044C20 20.4933 19.6 20.8933 19.1111 20.8933C10.7644 20.8933 4 14.1289 4 5.7822C4 5.29331 4.4 4.89331 4.88889 4.89331H8C8.48889 4.89331 8.88889 5.29331 8.88889 5.7822C8.88889 6.89331 9.06667 7.95998 9.39556 8.95553C9.49333 9.26664 9.42222 9.61331 9.17333 9.8622L7.21778 11.8178" stroke="#666666" stroke-width="2" stroke-linecap="round" stroke-linejoin="round"/>
</svg>
